<?xml version="1.0" encoding="UTF-8"?>
<svg width="242px" height="242px" viewBox="0 0 242 242" version="1.1" xmlns="http://www.w3.org/2000/svg" xmlns:xlink="http://www.w3.org/1999/xlink">
    <!-- Generator: Sketch 50 (54983) - http://www.bohemiancoding.com/sketch -->
    <title>ico-fiable</title>
    <desc>Created with Sketch.</desc>
    <defs></defs>
    <g id="Page-1" stroke="none" stroke-width="1" fill="none" fill-rule="evenodd">
        <g id="LANDING-PAGE" transform="translate(-1379.000000, -2012.000000)">
            <g id="TRUST" transform="translate(376.000000, 1400.000000)">
                <g id="LVL-2">
                    <g id="Group-5" transform="translate(1003.000000, 612.000000)">
                        <g id="Group-4">
                            <g id="ico-fiable">
                                <circle id="Oval" fill="#FFE649" cx="121" cy="121" r="121"></circle>
                                <g id="Group" transform="translate(91.000000, 74.000000)" fill="#30323D" fill-rule="nonzero">
                                    <path d="M31.5,30.8002577 C23.8378378,30.8002577 16.7837838,33.556701 11.1891892,38.1108247 L11.1891892,24.9278351 C11.1891892,13.9020619 20.3108108,4.91365979 31.5,4.91365979 C42.6891892,4.91365979 51.8108108,13.9020619 51.8108108,24.9278351 C51.8108108,26.246134 52.9054054,27.4445876 54.3648649,27.4445876 C55.7027027,27.4445876 56.9189189,26.3659794 56.9189189,24.9278351 C56.9189189,11.1456186 45.6081081,0 31.6216216,0 C17.6351351,0 6.32432432,11.1456186 6.32432432,24.9278351 L6.32432432,43.3840206 C2.43243243,48.5373711 0,55.0090206 0,61.9600515 C0,79.0979381 14.1081081,93 31.5,93 C48.8918919,93 63,79.0979381 63,61.9600515 C63,44.8221649 48.8918919,30.8002577 31.5,30.8002577 Z M31.5,88.0863402 C16.9054054,88.0863402 4.98648649,76.3414948 4.98648649,61.9600515 C4.98648649,47.5786082 16.9054054,35.8337629 31.5,35.8337629 C46.0945946,35.8337629 58.0135135,47.5786082 58.0135135,61.9600515 C58.0135135,76.3414948 46.0945946,88.0863402 31.5,88.0863402 Z" id="Shape" stroke="#30323D" stroke-width="3"></path>
                                    <path d="M30.9391304,50 C27.0434783,50 24,53.1737089 24,56.9577465 C24,59.6431925 25.4608696,61.8403756 27.6521739,63.0610329 L27.6521739,76 L34.1043478,76 L34.1043478,63.3051643 C36.4173913,62.2065728 38,59.7652582 38,57.0798122 C37.8782609,53.1737089 34.7130435,50 30.9391304,50 Z" id="Shape"></path>
                                </g>
                            </g>
                        </g>
                    </g>
                </g>
            </g>
        </g>
    </g>
</svg>