<?xml version="1.0" encoding="UTF-8"?>
<svg width="242px" height="242px" viewBox="0 0 242 242" version="1.1" xmlns="http://www.w3.org/2000/svg" xmlns:xlink="http://www.w3.org/1999/xlink">
    <!-- Generator: Sketch 50 (54983) - http://www.bohemiancoding.com/sketch -->
    <title>ico-competitif</title>
    <desc>Created with Sketch.</desc>
    <defs></defs>
    <g id="Page-1" stroke="none" stroke-width="1" fill="none" fill-rule="evenodd">
        <g id="LANDING-PAGE" transform="translate(-376.000000, -2012.000000)">
            <g id="TRUST" transform="translate(376.000000, 1400.000000)">
                <g id="LVL-2">
                    <g id="Group-2" transform="translate(0.000000, 612.000000)">
                        <g id="ico-competitif">
                            <circle id="Oval" fill="#FFE649" cx="121" cy="121" r="121"></circle>
                            <path d="M169.126509,127.56345 C154.447756,112.828163 139.746603,98.1152758 125.002782,83.4450567 C120.647477,79.1110859 115.310816,76.9830348 109.131467,77.0001018 C101.297679,77.0225024 93.4649575,77.0043686 85.6311693,77.006502 C79.1755475,77.0075687 76.0266719,80.1223102 76.0224051,86.5107303 C76.0202717,90.494826 76.0224051,94.4789218 76.0224051,98.4630175 C76.0224051,102.582583 75.963737,106.702149 76.0362721,110.820648 C76.1365412,116.44745 78.0501872,121.422502 82.0225493,125.426865 C96.8122379,140.334957 111.656328,155.19078 126.501485,170.044471 C130.270108,173.815228 134.998755,173.975232 138.721511,170.290876 C148.945757,160.174367 159.125202,150.010923 169.228911,139.773877 C172.990068,135.964718 172.895132,131.347007 169.126509,127.56345 Z M96.2991589,105.378384 C91.8521188,105.396517 88.1688303,101.77083 88.1272293,97.334457 C88.0845616,92.8063482 91.7934507,89.0846588 96.3215595,89.1123928 C100.757933,89.1390601 104.397487,92.810615 104.394287,97.2555218 C104.39002,101.701495 100.744066,105.36025 96.2991589,105.378384 Z" id="Shape" fill="#30323D" fill-rule="nonzero"></path>
                        </g>
                    </g>
                </g>
            </g>
        </g>
    </g>
</svg>