<?xml version="1.0" encoding="UTF-8"?>
<svg width="242px" height="242px" viewBox="0 0 242 242" version="1.1" xmlns="http://www.w3.org/2000/svg" xmlns:xlink="http://www.w3.org/1999/xlink">
    <!-- Generator: Sketch 50 (54983) - http://www.bohemiancoding.com/sketch -->
    <title>ico-simple</title>
    <desc>Created with Sketch.</desc>
    <defs></defs>
    <g id="Page-1" stroke="none" stroke-width="1" fill="none" fill-rule="evenodd">
        <g id="LANDING-PAGE" transform="translate(-376.000000, -1624.000000)">
            <g id="TRUST" transform="translate(376.000000, 1400.000000)">
                <g id="LVL-2">
                    <g id="Group-2" transform="translate(0.000000, 224.000000)">
                        <g id="ico-simple">
                            <circle id="Oval" fill="#FFE649" cx="121" cy="121" r="121"></circle>
                            <g id="Group-6" transform="translate(74.000000, 74.000000)" fill="#30323D">
                                <path d="M93.5617735,29.1873308 C93.5617735,32.2409312 92.3803731,35.0655116 90.2487159,37.1775853 C88.1170587,39.2896589 85.2662882,40.4856524 82.1843742,40.4856524 C79.0767775,40.4856524 76.226007,39.2896589 74.0943498,37.1775853 C72.3222493,35.421765 71.2435793,33.4114781 70.8840227,31.1721711 L54.9864828,46.9491067 L95,86.5950189 L87.6290889,93.77098 L81.4652609,87.6637791 L75.2757502,93.77098 L56.6301703,75.2966973 L62.819681,69.1894965 L47.666937,54.175961 L32.3087321,69.4185165 L38.4725602,75.5257174 L19.8269803,94 L13.6631522,87.8927991 L7.47364152,94 L0,86.5950189 L40.2703433,46.84732 L24.2187078,30.9431511 C23.7564207,33.182458 22.6777507,35.2945317 21.0083806,36.9485652 C18.8767234,39.0606389 16.025953,40.2311857 12.9440389,40.2311857 C9.8621249,40.2311857 7.01135442,39.0606389 4.87969722,36.9485652 C2.72235739,34.8364916 1.54095702,32.0119112 1.54095702,28.9328641 C1.54095702,25.8792637 2.72235739,23.0546833 4.87969722,20.9426096 C4.98242768,20.8153763 5.11084077,20.7135896 5.21357124,20.5863563 C4.62287105,20.2301029 4.03217086,19.7720628 3.56988375,19.2885761 C1.41254393,17.1765024 0.231143552,14.351922 0.231143552,11.2983216 C0.231143552,8.24472117 1.41254393,5.42014077 3.56988375,3.28262047 C5.70154096,1.17054683 8.55231144,0 11.6342255,0 C14.7161395,0 17.56691,1.17054683 19.7242498,3.28262047 C20.0581238,3.63887385 20.4176805,4.12236058 20.7772371,4.58040065 C21.0083806,4.12236058 21.4963504,3.63887385 21.855907,3.28262047 C23.9875642,1.17054683 26.8383347,0 29.9202487,0 C33.0021627,0 35.8529332,1.17054683 38.010273,3.28262047 C42.504731,7.65944775 42.504731,14.8354088 38.010273,19.2885761 C35.9813463,21.298863 33.2589889,22.4694099 30.4082184,22.5966432 L47.5898892,39.6204656 L64.8486077,22.5966432 C61.9978373,22.4694099 59.2497972,21.298863 57.2465531,19.2885761 C52.7264125,14.9371955 52.7264125,7.76123443 57.2465531,3.28262047 C59.3782103,1.17054683 62.2289808,0 65.3108948,0 C68.3928089,0 71.2435793,1.17054683 73.3752366,3.28262047 C73.7347932,3.63887385 74.0943498,4.12236058 74.4539065,4.58040065 C74.68505,4.12236058 75.1730197,3.63887385 75.5325764,3.28262047 C77.6642336,1.17054683 80.5150041,0 83.5969181,0 C86.6788321,0 89.5296026,1.17054683 91.6612598,3.28262047 C93.8185996,5.42014077 95,8.24472117 95,11.2983216 C95,14.351922 93.8185996,17.1765024 91.6612598,19.2885761 C91.0705596,19.7720628 90.6082725,20.2301029 90.0175723,20.5863563 C90.1203028,20.7135896 90.2487159,20.8153763 90.2487159,21.1716297 C92.3803731,23.2837033 93.5617735,26.1082837 93.5617735,29.1873308 Z M34.2505197,15.2443629 C36.5831601,12.9286838 36.5831601,9.07760881 34.2505197,6.76192973 C33.0967405,5.60409019 31.5918112,5 29.9614711,5 C28.331131,5 26.8262016,5.60409019 25.6724225,6.76192973 C24.5186433,7.91976927 23.816343,9.42999476 24.0420824,10.9402202 C24.0420824,12.5762979 24.618972,14.0865233 25.7978333,15.2443629 C28.0050629,17.5852124 31.9429614,17.5852124 34.2505197,15.2443629 Z M15.2678614,15.2443629 C17.5773795,12.9286838 17.5773795,9.07760881 15.2678614,6.76192973 C14.0879989,5.60409019 12.5817914,5 10.97517,5 C9.34344526,5 7.83723777,5.60409019 6.65737523,6.76192973 C5.50261616,7.91976927 4.79971933,9.42999476 5.05075391,10.9402202 C5.05075391,12.5762979 5.62813345,14.0865233 6.78289252,15.2443629 C8.99199684,17.5852124 12.9332398,17.5852124 15.2678614,15.2443629 Z M17.2495584,33.2589704 C19.5664119,30.9625585 19.5664119,27.1435257 17.3502912,24.7223089 C16.1918644,23.574103 14.680873,23 13.0439656,23 C11.4322415,23 9.92125006,23.574103 8.73764012,24.7223089 C7.57921337,25.8954758 7,27.3931357 7,28.9906396 C7,30.6131045 7.57921337,32.1107644 8.73764012,33.2589704 C10.9537609,35.5803432 14.9075217,35.5803432 17.2495584,33.2589704 Z M88,29.0535996 C88,27.414083 87.425897,25.9006831 86.2776911,24.7404099 C85.1294852,23.5801366 83.6318253,23 82.0093604,23 C80.3868955,23 78.8892356,23.5801366 77.7410296,24.7404099 C75.4196568,27.0609564 75.4196568,30.9201261 77.7410296,33.2406726 C79.9375975,35.5864425 83.8564743,35.5864425 86.1528861,33.2406726 C87.201248,32.0803994 87.900156,30.5669995 88,29.0535996 Z M89,11.012474 C89,9.39085239 88.4287332,7.89397089 87.2861996,6.74636175 C86.143666,5.5987526 84.6534048,5 83.0389552,5 C81.4245055,5 79.9342443,5.5987526 78.7917107,6.74636175 C76.3824551,9.04158004 76.3824551,12.8586279 78.9158992,15.2785863 C81.0767779,17.5738046 85.0011324,17.5738046 87.2861996,15.2785863 C88.4287332,14.1309771 89,12.6340956 89,11.012474 Z M71,11.012474 C71,9.39085239 70.4253088,7.89397089 69.2759263,6.74636175 C68.1265439,5.5987526 66.6023628,5 65.003222,5 C63.3790946,5 61.8799001,5.5987526 60.7305176,6.74636175 C58.4067661,9.04158004 58.4067661,12.8586279 60.8304639,15.2785863 C63.0292825,17.5738046 66.9521748,17.5738046 69.2759263,15.2785863 C70.4253088,14.1309771 71,12.6340956 71,11.012474 Z" id="Combined-Shape"></path>
                            </g>
                        </g>
                    </g>
                </g>
            </g>
        </g>
    </g>
</svg>