<?xml version="1.0" encoding="UTF-8"?>
<svg width="242px" height="242px" viewBox="0 0 242 242" version="1.1" xmlns="http://www.w3.org/2000/svg" xmlns:xlink="http://www.w3.org/1999/xlink">
    <!-- Generator: Sketch 50 (54983) - http://www.bohemiancoding.com/sketch -->
    <title>ico-efficace</title>
    <desc>Created with Sketch.</desc>
    <defs></defs>
    <g id="Page-1" stroke="none" stroke-width="1" fill="none" fill-rule="evenodd">
        <g id="LANDING-PAGE" transform="translate(-1379.000000, -1624.000000)">
            <g id="TRUST" transform="translate(376.000000, 1400.000000)">
                <g id="LVL-2">
                    <g id="Group-5" transform="translate(1003.000000, 224.000000)">
                        <g id="Group-4">
                            <g id="ico-efficace">
                                <circle id="Oval" fill="#FFE649" cx="121" cy="121" r="121"></circle>
                                <path d="M90.7704692,130.166439 L83.2040785,137.733152 L75.6376878,145.299864 L86.9872739,145.299864 L79.4208832,160.433288 L94.5536646,152.866576 L94.5536646,164.216644 L102.120055,156.649932 L109.686446,149.08322 C104.703171,148.773376 100.268762,146.618059 98.33686,141.516508 C93.2394639,139.584061 91.0820372,135.148402 90.7704692,130.166439 Z M145.619585,93.9611889 C150.546755,97.9589593 150.546755,105.201407 145.619585,109.205251 C141.619264,114.132241 134.379528,114.132241 130.376171,109.205251 C125.449002,105.201407 125.449002,97.9619959 130.376171,93.9611889 C134.376492,89.0341989 141.616229,89.0341989 145.619585,93.9611889 Z M166.579884,73.4160987 C168.333537,81.5537108 165.073552,109.489705 147.663907,126.383083 C146.191988,128.230588 145.16606,129.193514 143.880712,130.166439 L143.880712,137.733152 C145.606144,144.859156 143.094582,150.124637 140.097516,152.866576 L117.398344,168 L113.615149,145.299864 C109.023114,143.523305 104.535379,141.717122 102.265563,137.733152 C97.7939652,135.026733 95.9719616,130.607291 94.6991721,126.383083 L72,122.599727 L87.1327814,103.682947 C89.2950191,96.8909557 94.7442115,94.2637811 102.265563,96.116235 L109.831954,96.116235 C110.348972,94.7090649 111.33846,93.67378 113.615149,92.3328789 C130.239645,74.9106327 158.379791,71.6767589 166.579884,73.4160987 Z" id="Icon" fill="#30323D"></path>
                            </g>
                        </g>
                    </g>
                </g>
            </g>
        </g>
    </g>
</svg>